# Blender 4.1.1
# www.blender.org
mtllib mouse.mtl
o defaultMaterial.002
v -1.500719 0.714333 0.567677
v -1.491472 0.714333 0.568341
v -1.491472 0.714333 0.539852
v -1.501277 0.714333 0.539852
v -1.467930 0.714333 0.568341
v -1.467930 0.714333 0.539852
v -1.458682 0.714333 0.567677
v -1.458125 0.714333 0.539852
v -1.501769 0.714333 0.495011
v -1.510580 0.714333 0.495011
v -1.457632 0.714333 0.495011
v -1.448822 0.714333 0.495011
v -1.498791 0.714333 0.470695
v -1.508109 0.714333 0.471358
v -1.460610 0.714333 0.470695
v -1.451293 0.714333 0.471358
v -1.501277 0.677128 0.584693
v -1.491472 0.677128 0.584693
v -1.491472 0.689110 0.584693
v -1.501277 0.689110 0.584693
v -1.467930 0.677128 0.584693
v -1.467930 0.689110 0.584693
v -1.458125 0.677128 0.584693
v -1.458125 0.689110 0.584693
v -1.491472 0.697981 0.584693
v -1.501277 0.697981 0.584693
v -1.467930 0.697981 0.584693
v -1.458125 0.697981 0.584693
v -1.444389 0.677128 0.568341
v -1.444389 0.677128 0.539852
v -1.444389 0.689110 0.539852
v -1.444389 0.689110 0.568341
v -1.435331 0.677128 0.495011
v -1.435331 0.689110 0.495011
v -1.437662 0.677128 0.470695
v -1.437662 0.689110 0.470695
v -1.444389 0.697981 0.539852
v -1.444389 0.697981 0.568341
v -1.435331 0.697981 0.495011
v -1.437662 0.697981 0.470695
v -1.454015 0.677128 0.450170
v -1.465688 0.677128 0.450170
v -1.465688 0.689110 0.450170
v -1.454015 0.689110 0.450170
v -1.493714 0.677128 0.450170
v -1.493714 0.689110 0.450170
v -1.505387 0.677128 0.450170
v -1.505387 0.689110 0.450170
v -1.465688 0.697981 0.450170
v -1.454015 0.697981 0.450170
v -1.493714 0.697981 0.450170
v -1.505387 0.697981 0.450170
v -1.521739 0.677128 0.470695
v -1.524070 0.677128 0.495011
v -1.524070 0.689110 0.495011
v -1.521739 0.689110 0.470695
v -1.515013 0.677128 0.539852
v -1.515013 0.689110 0.539852
v -1.515013 0.677128 0.568341
v -1.515013 0.689110 0.568341
v -1.524070 0.697981 0.495011
v -1.521739 0.697981 0.470695
v -1.515013 0.697981 0.539852
v -1.515013 0.697981 0.568341
v -1.501277 0.689110 0.584693
v -1.511579 0.689110 0.580605
v -1.511579 0.677128 0.580605
v -1.501277 0.677128 0.584693
v -1.458125 0.677128 0.584693
v -1.447823 0.677128 0.580605
v -1.447823 0.689110 0.580605
v -1.458125 0.689110 0.584693
v -1.511579 0.697981 0.580605
v -1.501277 0.697981 0.584693
v -1.447823 0.697981 0.580605
v -1.458125 0.697981 0.584693
v -1.441750 0.677128 0.454258
v -1.441750 0.689110 0.454258
v -1.441750 0.697981 0.454258
v -1.505387 0.677128 0.450170
v -1.517651 0.677128 0.454258
v -1.517651 0.689110 0.454258
v -1.505387 0.689110 0.450170
v -1.517651 0.697981 0.454258
v -1.505387 0.697981 0.450170
v -1.511579 0.689110 0.580605
v -1.511579 0.677128 0.580605
v -1.447823 0.677128 0.580605
v -1.447823 0.689110 0.580605
v -1.511579 0.697981 0.580605
v -1.447823 0.697981 0.580605
v -1.441750 0.677128 0.454258
v -1.454015 0.677128 0.450170
v -1.454015 0.689110 0.450170
v -1.441750 0.689110 0.454258
v -1.454015 0.697981 0.450170
v -1.441750 0.697981 0.454258
v -1.517651 0.677128 0.454258
v -1.517651 0.689110 0.454258
v -1.517651 0.697981 0.454258
v -1.500719 0.714333 0.567677
v -1.511579 0.710245 0.567677
v -1.508864 0.710245 0.577373
v -1.500719 0.710245 0.580605
v -1.500719 0.710245 0.580605
v -1.491472 0.710245 0.580605
v -1.501277 0.714333 0.539852
v -1.511579 0.710245 0.539852
v -1.467930 0.710245 0.580605
v -1.458682 0.710245 0.580605
v -1.458682 0.714333 0.567677
v -1.458682 0.710245 0.580605
v -1.450537 0.710245 0.577373
v -1.447823 0.710245 0.567677
v -1.458125 0.714333 0.539852
v -1.447823 0.710245 0.539852
v -1.510580 0.714333 0.495011
v -1.519755 0.710245 0.495011
v -1.448822 0.714333 0.495011
v -1.439646 0.710245 0.495011
v -1.493714 0.710245 0.454258
v -1.504724 0.710245 0.454258
v -1.508109 0.714333 0.471358
v -1.504724 0.710245 0.454258
v -1.514419 0.710245 0.457490
v -1.517651 0.710245 0.471358
v -1.465688 0.710245 0.454258
v -1.451293 0.714333 0.471358
v -1.441750 0.710245 0.471358
v -1.444982 0.710245 0.457490
v -1.454678 0.710245 0.454258
v -1.454678 0.710245 0.454258
v -1.491472 0.710245 0.580605
v -1.500719 0.710245 0.580605
v -1.467930 0.710245 0.580605
v -1.458682 0.710245 0.580605
v -1.447823 0.710245 0.539852
v -1.447823 0.710245 0.567677
v -1.439646 0.710245 0.495011
v -1.441750 0.710245 0.471358
v -1.465688 0.710245 0.454258
v -1.454678 0.710245 0.454258
v -1.493714 0.710245 0.454258
v -1.504724 0.710245 0.454258
v -1.519755 0.710245 0.495011
v -1.517651 0.710245 0.471358
v -1.511579 0.710245 0.539852
v -1.511579 0.710245 0.567677
v -1.500719 0.710245 0.580605
v -1.508864 0.710245 0.577373
v -1.450537 0.710245 0.577373
v -1.458682 0.710245 0.580605
v -1.444982 0.710245 0.457490
v -1.514419 0.710245 0.457490
v -1.504724 0.710245 0.454258
v -1.508864 0.710245 0.577373
v -1.450537 0.710245 0.577373
v -1.454678 0.710245 0.454258
v -1.444982 0.710245 0.457490
v -1.514419 0.710245 0.457490
v -1.481613 0.713225 0.468219
v -1.481725 0.716667 0.468826
v -1.477609 0.716800 0.468826
v -1.477497 0.713358 0.468219
v -1.481823 0.719694 0.470575
v -1.477707 0.719827 0.470575
v -1.481896 0.721941 0.473253
v -1.477780 0.722074 0.473253
v -1.481934 0.723136 0.476539
v -1.477818 0.723269 0.476539
v -1.481934 0.723136 0.480037
v -1.477818 0.723269 0.480037
v -1.481896 0.721941 0.483323
v -1.477780 0.722074 0.483323
v -1.481823 0.719694 0.486002
v -1.477707 0.719827 0.486002
v -1.481725 0.716667 0.487750
v -1.477609 0.716800 0.487750
v -1.481613 0.713225 0.488357
v -1.477497 0.713358 0.488357
v -1.482673 0.716308 0.469727
v -1.482572 0.713194 0.469178
v -1.482572 0.713194 0.478288
v -1.482761 0.719047 0.471309
v -1.482827 0.721080 0.473733
v -1.482862 0.722162 0.476706
v -1.482862 0.722162 0.479870
v -1.482827 0.721080 0.482843
v -1.482761 0.719047 0.485267
v -1.482673 0.716308 0.486849
v -1.482572 0.713194 0.487399
v -1.476539 0.713389 0.469178
v -1.476640 0.716503 0.469727
v -1.476539 0.713389 0.478288
v -1.476728 0.719242 0.471309
v -1.476794 0.721275 0.473733
v -1.476829 0.722356 0.476706
v -1.476829 0.722356 0.479870
v -1.476794 0.721275 0.482843
v -1.476728 0.719242 0.485267
v -1.476640 0.716503 0.486849
v -1.476539 0.713389 0.487399
v -1.481613 0.713225 0.468219
v -1.482572 0.713194 0.469178
v -1.482673 0.716308 0.469727
v -1.481725 0.716667 0.468826
v -1.482761 0.719047 0.471309
v -1.481823 0.719694 0.470575
v -1.482827 0.721080 0.473733
v -1.481896 0.721941 0.473253
v -1.482862 0.722162 0.476706
v -1.481934 0.723136 0.476539
v -1.482862 0.722162 0.479870
v -1.481934 0.723136 0.480037
v -1.482827 0.721080 0.482843
v -1.481896 0.721941 0.483323
v -1.482761 0.719047 0.485267
v -1.481823 0.719694 0.486002
v -1.482673 0.716308 0.486849
v -1.481725 0.716667 0.487750
v -1.482572 0.713194 0.487399
v -1.481613 0.713225 0.488357
v -1.477609 0.716800 0.468826
v -1.476640 0.716503 0.469727
v -1.476539 0.713389 0.469178
v -1.477497 0.713358 0.468219
v -1.477707 0.719827 0.470575
v -1.476728 0.719242 0.471309
v -1.477780 0.722074 0.473253
v -1.476794 0.721275 0.473733
v -1.477818 0.723269 0.476539
v -1.476829 0.722356 0.476706
v -1.477818 0.723269 0.480037
v -1.476829 0.722356 0.479870
v -1.477780 0.722074 0.483323
v -1.476794 0.721275 0.482843
v -1.477707 0.719827 0.486002
v -1.476728 0.719242 0.485267
v -1.477609 0.716800 0.487750
v -1.476640 0.716503 0.486849
v -1.477497 0.713358 0.488357
v -1.476539 0.713389 0.487399
vn -0.1789 0.9837 0.0177
vn -0.1557 0.9800 0.1237
vn -0.0029 0.9868 0.1617
vn -0.0000 1.0000 -0.0000
vn 0.0030 0.9868 0.1616
vn 0.1557 0.9800 0.1237
vn 0.1789 0.9837 0.0177
vn -0.2195 0.9755 0.0111
vn 0.2195 0.9755 0.0111
vn -0.0024 0.9923 -0.1235
vn -0.1769 0.9790 -0.1018
vn 0.0024 0.9923 -0.1234
vn 0.1769 0.9790 -0.1018
vn -0.1877 -0.0000 0.9822
vn -0.0000 -0.0000 1.0000
vn 0.1877 -0.0000 0.9822
vn -0.0000 0.1602 0.9871
vn -0.1844 0.1584 0.9700
vn 0.1845 0.1584 0.9700
vn 0.9907 -0.0000 0.1361
vn 0.9950 -0.0000 0.0995
vn 0.9987 -0.0000 0.0518
vn 0.9987 -0.0000 0.0519
vn 0.9856 -0.0000 -0.1689
vn 0.9847 0.1449 0.0967
vn 0.9813 0.1367 0.1354
vn 0.9864 0.1565 0.0493
vn 0.9733 0.1604 -0.1643
vn 0.1601 -0.0000 -0.9871
vn -0.0000 -0.0000 -1.0000
vn -0.1601 -0.0000 -0.9871
vn -0.0000 0.1602 -0.9871
vn 0.1581 0.1595 -0.9745
vn -0.1581 0.1595 -0.9745
vn -0.9856 -0.0000 -0.1689
vn -0.9987 -0.0000 0.0518
vn -0.9950 -0.0000 0.0995
vn -0.9907 -0.0000 0.1361
vn -0.9864 0.1565 0.0494
vn -0.9733 0.1602 -0.1644
vn -0.9847 0.1450 0.0967
vn -0.9813 0.1367 0.1354
vn -0.1878 -0.0000 0.9822
vn -0.3688 -0.0000 0.9295
vn 0.1878 -0.0000 0.9822
vn 0.3688 -0.0000 0.9295
vn -0.1845 0.1584 0.9700
vn -0.3646 0.1519 0.9187
vn 0.3646 0.1519 0.9187
vn 0.9704 -0.0000 -0.2414
vn 0.9605 0.1478 -0.2357
vn -0.1602 -0.0000 -0.9871
vn -0.3162 -0.0000 -0.9487
vn -0.3126 0.1518 -0.9377
vn -0.1582 0.1595 -0.9744
vn -0.9630 -0.0000 0.2696
vn 0.9630 -0.0000 0.2696
vn -0.9549 0.1294 0.2674
vn 0.9549 0.1294 0.2674
vn 0.3162 -0.0000 -0.9487
vn 0.1602 -0.0000 -0.9871
vn 0.1582 0.1595 -0.9744
vn 0.3126 0.1518 -0.9377
vn -0.9704 -0.0000 -0.2414
vn -0.9605 0.1479 -0.2357
vn -0.1558 0.9800 0.1237
vn -0.3564 0.9332 0.0468
vn -0.2240 0.9511 0.2129
vn -0.0581 0.9506 0.3051
vn -0.0055 0.9499 0.3125
vn -0.1790 0.9837 0.0177
vn -0.3741 0.9265 0.0413
vn 0.0055 0.9499 0.3125
vn 0.0581 0.9506 0.3051
vn 0.1558 0.9800 0.1237
vn 0.2240 0.9511 0.2129
vn 0.3564 0.9332 0.0468
vn 0.3741 0.9265 0.0413
vn 0.1790 0.9837 0.0178
vn -0.2196 0.9755 0.0111
vn -0.3938 0.9190 0.0167
vn 0.3938 0.9190 0.0167
vn 0.2196 0.9755 0.0111
vn -0.0359 0.9696 -0.2420
vn -0.0031 0.9707 -0.2403
vn -0.1770 0.9789 -0.1018
vn -0.0360 0.9696 -0.2420
vn -0.1847 0.9623 -0.1996
vn -0.3965 0.9159 -0.0625
vn 0.0032 0.9707 -0.2403
vn 0.3965 0.9159 -0.0625
vn 0.1770 0.9789 -0.1018
vn 0.1847 0.9623 -0.1996
vn 0.0360 0.9696 -0.2420
vn -0.1800 0.3184 0.9307
vn -0.0000 0.3162 0.9487
vn 0.1800 0.3184 0.9307
vn 0.9530 0.2738 0.1296
vn 0.9547 0.2839 0.0891
vn 0.9484 0.3133 0.0483
vn 0.9350 0.3188 -0.1554
vn 0.1517 0.3200 -0.9352
vn -0.0000 0.3162 -0.9487
vn -0.1517 0.3199 -0.9352
vn -0.9350 0.3188 -0.1554
vn -0.9484 0.3133 0.0483
vn -0.9547 0.2840 0.0891
vn -0.9530 0.2738 0.1296
vn -0.3506 0.3104 0.8836
vn 0.3506 0.3104 0.8836
vn 0.9238 0.3111 -0.2231
vn -0.1518 0.3200 -0.9352
vn -0.3000 0.3162 -0.9000
vn -0.9263 0.2734 0.2594
vn 0.9263 0.2734 0.2594
vn 0.3000 0.3162 -0.9000
vn 0.1518 0.3199 -0.9352
vn -0.9238 0.3111 -0.2232
vn -0.0056 0.1736 -0.9848
vn -0.0111 0.3419 -0.9397
vn -0.0208 0.6424 -0.7661
vn -0.0208 0.6425 -0.7660
vn -0.0280 0.8656 -0.5000
vn -0.0318 0.9843 -0.1737
vn -0.0318 0.9843 0.1737
vn -0.0280 0.8656 0.5000
vn -0.0208 0.6424 0.7661
vn -0.0111 0.3418 0.9397
vn -0.0056 0.1735 0.9848
vn -0.9995 -0.0324 -0.0000
vn -0.9995 -0.0323 -0.0000
vn -0.9995 -0.0324 -0.0001
vn -0.9995 -0.0324 0.0001
vn 0.9995 0.0324 -0.0000
vn 0.9995 0.0323 -0.0000
vn 0.9995 0.0324 0.0001
vn 0.9995 0.0323 -0.0001
vn 0.9995 0.0323 0.0001
vn 0.9995 0.0324 -0.0001
vn 0.9995 0.0322 -0.0000
vn -0.7054 0.1010 -0.7016
vn -0.7213 0.4315 -0.5418
vn -0.7128 0.3334 -0.6171
vn -0.7127 0.3334 -0.6171
vn -0.7213 0.4314 -0.5418
vn -0.7266 0.5892 -0.3535
vn -0.7293 0.6731 -0.1228
vn -0.7293 0.6731 0.1228
vn -0.7266 0.5891 0.3536
vn -0.7266 0.5891 0.3535
vn -0.7215 0.4314 0.5417
vn -0.7215 0.4314 0.5416
vn -0.7146 0.2188 0.6644
vn -0.7053 0.1010 0.7017
vn 0.6974 0.1463 -0.7016
vn 0.6989 0.2646 -0.6645
vn 0.6920 0.4772 -0.5417
vn 0.6870 0.6349 -0.3535
vn 0.6870 0.6349 -0.3536
vn 0.6843 0.7188 -0.1228
vn 0.6843 0.7188 0.1228
vn 0.6870 0.6348 0.3535
vn 0.6921 0.4771 0.5416
vn 0.6990 0.2646 0.6644
vn 0.6990 0.2645 0.6644
vn 0.6972 0.1464 0.7017
vn 0.6974 0.1463 0.7015
vt 0.809219 0.256660
vt 0.808782 0.235222
vt 0.801663 0.234712
vt 0.801667 0.256660
vt 0.783539 0.234712
vt 0.783535 0.256660
vt 0.776420 0.235222
vt 0.775983 0.256660
vt 0.809601 0.291206
vt 0.816386 0.291206
vt 0.775601 0.291206
vt 0.768816 0.291206
vt 0.807304 0.309939
vt 0.814478 0.309428
vt 0.777898 0.309939
vt 0.770724 0.309428
vt 0.809225 0.207965
vt 0.809223 0.198735
vt 0.801669 0.198736
vt 0.801670 0.207967
vt 0.783533 0.198736
vt 0.783532 0.207967
vt 0.775979 0.198735
vt 0.775977 0.207965
vt 0.801671 0.214801
vt 0.809228 0.214800
vt 0.783531 0.214801
vt 0.775974 0.214800
vt 0.859782 0.329108
vt 0.868864 0.330184
vt 0.870478 0.307877
vt 0.861178 0.307140
vt 0.873485 0.272326
vt 0.864271 0.271965
vt 0.873724 0.252798
vt 0.864544 0.253108
vt 0.854126 0.306594
vt 0.853216 0.328307
vt 0.857473 0.271728
vt 0.857803 0.253331
vt 0.772811 0.339782
vt 0.772812 0.349013
vt 0.781805 0.349012
vt 0.781805 0.339781
vt 0.803397 0.349012
vt 0.803397 0.339781
vt 0.812390 0.349013
vt 0.812391 0.339782
vt 0.781804 0.332947
vt 0.772809 0.332948
vt 0.803398 0.332947
vt 0.812393 0.332948
vt 0.633777 0.455949
vt 0.634086 0.446769
vt 0.614558 0.447008
vt 0.614920 0.456222
vt 0.579007 0.450015
vt 0.579744 0.459316
vt 0.556701 0.451629
vt 0.557777 0.460711
vt 0.615157 0.463020
vt 0.633553 0.462690
vt 0.580291 0.466368
vt 0.558578 0.467278
vt 0.537872 0.455071
vt 0.539617 0.464404
vt 0.547979 0.462282
vt 0.546466 0.453253
vt 0.856089 0.347268
vt 0.865423 0.349013
vt 0.867241 0.340418
vt 0.858212 0.338906
vt 0.541502 0.471812
vt 0.549217 0.468646
vt 0.851847 0.337667
vt 0.848682 0.345383
vt 0.872634 0.239077
vt 0.863572 0.239983
vt 0.857262 0.240756
vt 0.656765 0.458915
vt 0.657983 0.449450
vt 0.647808 0.447858
vt 0.646902 0.456920
vt 0.646129 0.463230
vt 0.655263 0.466533
vt 0.871042 0.228902
vt 0.861577 0.230120
vt 0.853959 0.231622
vt 0.558361 0.485694
vt 0.559471 0.476846
vt 0.552375 0.477543
vt 0.547407 0.481394
vt 0.801676 0.224756
vt 0.808807 0.224768
vt 0.580422 0.485194
vt 0.580698 0.476490
vt 0.783526 0.224756
vt 0.776395 0.224768
vt 0.834800 0.328524
vt 0.839100 0.339478
vt 0.842951 0.334510
vt 0.843648 0.327414
vt 0.844003 0.306187
vt 0.835300 0.306463
vt 0.615870 0.480727
vt 0.615620 0.473013
vt 0.847480 0.271265
vt 0.839766 0.271015
vt 0.811888 0.322983
vt 0.803401 0.322990
vt 0.635272 0.480639
vt 0.649905 0.476627
vt 0.643947 0.472341
vt 0.633538 0.472663
vt 0.781801 0.322990
vt 0.847830 0.253347
vt 0.839854 0.251613
vt 0.848152 0.242938
vt 0.843866 0.236980
vt 0.773314 0.322983
vt 0.555474 0.980574
vt 0.558705 0.980538
vt 0.558637 0.977877
vt 0.555483 0.977912
vt 0.558617 0.975258
vt 0.555446 0.975292
vt 0.558592 0.972647
vt 0.555414 0.972682
vt 0.558560 0.970045
vt 0.555389 0.970080
vt 0.558531 0.967448
vt 0.555360 0.967483
vt 0.558507 0.964846
vt 0.555328 0.964880
vt 0.558474 0.962235
vt 0.555304 0.962270
vt 0.558437 0.959616
vt 0.555283 0.959650
vt 0.558447 0.956954
vt 0.555216 0.956989
vt 0.564212 0.975304
vt 0.566623 0.975683
vt 0.566494 0.968659
vt 0.562077 0.974122
vt 0.560474 0.972282
vt 0.559596 0.970005
vt 0.559567 0.967465
vt 0.560396 0.965169
vt 0.561957 0.963294
vt 0.564065 0.962066
vt 0.566467 0.961633
vt 0.547453 0.975895
vt 0.549855 0.975462
vt 0.547426 0.968869
vt 0.551963 0.974234
vt 0.553525 0.972359
vt 0.554353 0.970063
vt 0.554325 0.967523
vt 0.553446 0.965245
vt 0.551843 0.963405
vt 0.549708 0.962224
vt 0.547298 0.961844
vt 0.559764 0.980347
vt 0.559666 0.977840
vt 0.559652 0.975246
vt 0.559631 0.972633
vt 0.559546 0.964837
vt 0.559510 0.962224
vt 0.559466 0.959631
vt 0.559510 0.957122
vt 0.554454 0.977897
vt 0.554411 0.980406
vt 0.554411 0.975303
vt 0.554375 0.972691
vt 0.554289 0.964895
vt 0.554268 0.962282
vt 0.554255 0.959688
vt 0.554157 0.957180
s 1
usemtl 01___Default
f 4/1/1 1/2/2 2/3/3
f 2/3/3 3/4/4 4/1/1
f 2/3/3 5/5/5 6/6/4
f 6/6/4 3/4/4 2/3/3
f 5/5/5 7/7/6 8/8/7
f 8/8/7 6/6/4 5/5/5
f 4/1/1 3/4/4 9/9/4
f 9/9/4 10/10/8 4/1/1
s 0
f 9/9/4 3/4/4 6/6/4
f 6/6/4 11/11/4 9/9/4
s 1
f 6/6/4 8/8/7 12/12/9
f 12/12/9 11/11/4 6/6/4
f 10/10/8 9/9/4 13/13/10
f 13/13/10 14/14/11 10/10/8
f 9/9/4 11/11/4 15/15/12
f 15/15/12 13/13/10 9/9/4
f 15/15/12 11/11/4 12/12/9
f 12/12/9 16/16/13 15/15/12
f 20/17/14 17/18/14 18/19/15
f 18/19/15 19/20/15 20/17/14
s 0
f 19/20/15 18/19/15 21/21/15
f 21/21/15 22/22/15 19/20/15
s 1
f 22/22/15 21/21/15 23/23/16
f 23/23/16 24/24/16 22/22/15
f 20/17/14 19/20/15 25/25/17
f 25/25/17 26/26/18 20/17/14
f 19/20/15 22/22/15 27/27/17
f 27/27/17 25/25/17 19/20/15
f 22/22/15 24/24/16 28/28/19
f 28/28/19 27/27/17 22/22/15
f 32/29/20 29/30/20 30/31/21
f 30/31/21 31/32/21 32/29/20
f 31/32/21 30/31/21 33/33/22
f 33/33/22 34/34/23 31/32/21
f 34/34/23 33/33/22 35/35/24
f 35/35/24 36/36/24 34/34/23
f 32/29/20 31/32/21 37/37/25
f 37/37/25 38/38/26 32/29/20
f 31/32/21 34/34/23 39/39/27
f 39/39/27 37/37/25 31/32/21
f 34/34/23 36/36/24 40/40/28
f 40/40/28 39/39/27 34/34/23
f 44/41/29 41/42/29 42/43/30
f 42/43/30 43/44/30 44/41/29
s 0
f 43/44/30 42/43/30 45/45/30
f 45/45/30 46/46/30 43/44/30
s 1
f 46/46/30 45/45/30 47/47/31
f 47/47/31 48/48/31 46/46/30
f 44/41/29 43/44/30 49/49/32
f 49/49/32 50/50/33 44/41/29
f 43/44/30 46/46/30 51/51/32
f 51/51/32 49/49/32 43/44/30
f 46/46/30 48/48/31 52/52/34
f 52/52/34 51/51/32 46/46/30
f 56/53/35 53/54/35 54/55/36
f 54/55/36 55/56/36 56/53/35
f 55/56/36 54/55/36 57/57/37
f 57/57/37 58/58/37 55/56/36
f 58/58/37 57/57/37 59/59/38
f 59/59/38 60/60/38 58/58/37
f 56/53/35 55/56/36 61/61/39
f 61/61/39 62/62/40 56/53/35
f 55/56/36 58/58/37 63/63/41
f 63/63/41 61/61/39 55/56/36
f 58/58/37 60/60/38 64/64/42
f 64/64/42 63/63/41 58/58/37
f 68/65/43 65/66/43 66/67/44
f 66/67/44 67/68/44 68/65/43
f 72/69/45 69/70/45 70/71/46
f 70/71/46 71/72/46 72/69/45
f 74/73/47 73/74/48 66/67/44
f 66/67/44 65/66/43 74/73/47
f 72/69/45 71/72/46 75/75/49
f 75/75/49 76/76/19 72/69/45
f 36/36/24 35/35/24 77/77/50
f 77/77/50 78/78/50 36/36/24
f 36/36/24 78/78/50 79/79/51
f 79/79/51 40/40/28 36/36/24
f 83/80/52 80/81/52 81/82/53
f 81/82/53 82/83/53 83/80/52
f 83/80/52 82/83/53 84/84/54
f 84/84/54 85/85/55 83/80/52
f 87/68/56 86/67/56 60/60/38
f 60/60/38 59/59/38 87/68/56
f 89/72/57 88/71/57 29/30/20
f 29/30/20 32/29/20 89/72/57
f 90/74/58 64/64/42 60/60/38
f 60/60/38 86/67/56 90/74/58
f 89/72/57 32/29/20 38/38/26
f 38/38/26 91/75/59 89/72/57
f 95/78/60 92/77/60 93/86/61
f 93/86/61 94/87/61 95/78/60
f 95/78/60 94/87/61 96/88/62
f 96/88/62 97/79/63 95/78/60
f 99/83/64 98/82/64 53/54/35
f 53/54/35 56/53/35 99/83/64
f 99/83/64 56/53/35 62/62/40
f 62/62/40 100/84/65 99/83/64
f 101/89/66 102/90/67 103/91/68
f 101/89/66 103/91/68 104/92/69
f 106/93/70 2/3/3 1/2/2
f 1/2/2 105/94/69 106/93/70
f 102/90/67 101/89/66 107/95/71
f 107/95/71 108/96/72 102/90/67
f 109/97/73 5/5/5 2/3/3
f 2/3/3 106/93/70 109/97/73
f 110/98/74 7/7/6 5/5/5
f 5/5/5 109/97/73 110/98/74
f 111/99/75 112/100/74 113/101/76
f 111/99/75 113/101/76 114/102/77
f 116/103/78 115/104/79 111/99/75
f 111/99/75 114/102/77 116/103/78
f 108/96/72 107/95/71 117/105/80
f 117/105/80 118/106/81 108/96/72
f 120/107/82 119/108/83 115/104/79
f 115/104/79 116/103/78 120/107/82
f 122/109/84 14/14/11 13/13/10
f 13/13/10 121/110/85 122/109/84
f 123/111/86 124/112/87 125/113/88
f 123/111/86 125/113/88 126/114/89
f 118/106/81 117/105/80 123/111/86
f 123/111/86 126/114/89 118/106/81
f 121/110/85 13/13/10 15/15/12
f 15/15/12 127/115/90 121/110/85
f 129/116/91 128/117/92 119/108/83
f 119/108/83 120/107/82 129/116/91
f 128/117/92 129/116/91 130/118/93
f 128/117/92 130/118/93 131/119/94
f 127/115/90 15/15/12 16/16/13
f 16/16/13 132/120/94 127/115/90
f 134/94/95 26/26/18 25/25/17
f 25/25/17 133/93/96 134/94/95
f 133/93/96 25/25/17 27/27/17
f 27/27/17 135/97/96 133/93/96
f 135/97/96 27/27/17 28/28/19
f 28/28/19 136/98/97 135/97/96
f 138/102/98 38/38/26 37/37/25
f 37/37/25 137/103/99 138/102/98
f 137/103/99 37/37/25 39/39/27
f 39/39/27 139/107/100 137/103/99
f 139/107/100 39/39/27 40/40/28
f 40/40/28 140/116/101 139/107/100
f 142/120/102 50/50/33 49/49/32
f 49/49/32 141/115/103 142/120/102
f 141/115/103 49/49/32 51/51/32
f 51/51/32 143/110/103 141/115/103
f 143/110/103 51/51/32 52/52/34
f 52/52/34 144/109/104 143/110/103
f 146/114/105 62/62/40 61/61/39
f 61/61/39 145/106/106 146/114/105
f 145/106/106 61/61/39 63/63/41
f 63/63/41 147/96/107 145/106/106
f 147/96/107 63/63/41 64/64/42
f 64/64/42 148/90/108 147/96/107
f 150/91/109 73/74/48 74/73/47
f 74/73/47 149/92/95 150/91/109
f 152/100/97 76/76/19 75/75/49
f 75/75/49 151/101/110 152/100/97
f 140/116/101 40/40/28 79/79/51
f 79/79/51 153/118/111 140/116/101
f 155/112/112 85/85/55 84/84/54
f 84/84/54 154/113/113 155/112/112
f 148/90/108 64/64/42 90/74/58
f 90/74/58 156/91/114 148/90/108
f 157/101/115 91/75/59 38/38/26
f 38/38/26 138/102/98 157/101/115
f 159/118/116 97/79/63 96/88/62
f 96/88/62 158/119/117 159/118/116
f 160/113/118 100/84/65 62/62/40
f 62/62/40 146/114/105 160/113/118
f 164/121/119 161/122/119 162/123/120
f 162/123/120 163/124/120 164/121/119
f 163/124/120 162/123/120 165/125/121
f 165/125/121 166/126/122 163/124/120
f 166/126/122 165/125/121 167/127/123
f 167/127/123 168/128/123 166/126/122
f 168/128/123 167/127/123 169/129/124
f 169/129/124 170/130/124 168/128/123
f 170/130/124 169/129/124 171/131/125
f 171/131/125 172/132/125 170/130/124
f 172/132/125 171/131/125 173/133/126
f 173/133/126 174/134/126 172/132/125
f 174/134/126 173/133/126 175/135/127
f 175/135/127 176/136/127 174/134/126
f 176/136/127 175/135/127 177/137/128
f 177/137/128 178/138/128 176/136/127
f 178/138/128 177/137/128 179/139/129
f 179/139/129 180/140/129 178/138/128
s 0
f 181/141/130 182/142/130 183/143/130
f 184/144/131 181/141/131 183/143/131
f 185/145/131 184/144/131 183/143/131
f 186/146/132 185/145/132 183/143/132
f 187/147/131 186/146/131 183/143/131
f 188/148/133 187/147/133 183/143/133
f 189/149/131 188/148/131 183/143/131
f 190/150/131 189/149/131 183/143/131
f 191/151/130 190/150/130 183/143/130
f 192/152/134 193/153/134 194/154/134
f 193/153/135 195/155/135 194/154/135
f 195/155/136 196/156/136 194/154/136
f 196/156/137 197/157/137 194/154/137
f 197/157/135 198/158/135 194/154/135
f 198/158/138 199/159/138 194/154/138
f 199/159/139 200/160/139 194/154/139
f 200/160/135 201/161/135 194/154/135
f 201/161/140 202/162/140 194/154/140
s 1
f 206/123/141 203/122/141 204/163/141
f 208/125/142 206/123/143 205/164/144
f 205/164/144 207/165/145 208/125/142
f 210/127/146 208/125/142 207/165/145
f 207/165/145 209/166/146 210/127/146
f 212/129/147 210/127/146 209/166/146
f 209/166/146 211/146/147 212/129/147
f 214/131/148 212/129/147 211/146/147
f 211/146/147 213/147/148 214/131/148
f 216/133/149 214/131/148 213/147/148
f 213/147/148 215/167/150 216/133/149
f 218/135/151 216/133/149 215/167/150
f 215/167/150 217/168/152 218/135/151
f 220/137/153 218/135/151 217/168/152
f 217/168/152 219/169/153 220/137/153
f 222/139/154 220/137/153 219/169/153
f 219/169/153 221/170/154 222/139/154
f 226/121/155 223/124/156 224/171/156
f 224/171/156 225/172/155 226/121/155
f 223/124/156 227/126/157 228/173/157
f 228/173/157 224/171/156 223/124/156
f 227/126/157 229/128/158 230/174/159
f 230/174/159 228/173/157 227/126/157
f 229/128/158 231/130/160 232/157/160
f 232/157/160 230/174/159 229/128/158
f 231/130/160 233/132/161 234/158/161
f 234/158/161 232/157/160 231/130/160
f 233/132/161 235/134/162 236/175/162
f 236/175/162 234/158/161 233/132/161
f 235/134/162 237/136/163 238/176/163
f 238/176/163 236/175/162 235/134/162
f 237/136/163 239/138/164 240/177/165
f 240/177/165 238/176/163 237/136/163
f 239/138/164 241/140/166 242/178/167
f 242/178/167 240/177/165 239/138/164
